<svg version="1.1" xmlns="http://www.w3.org/2000/svg" xmlns:xlink="http://www.w3.org/1999/xlink" width="82.89101" height="51.25508" viewBox="0,0,82.89101,51.25508"><g transform="translate(-198.55449,-154.37246)"><g data-paper-data="{&quot;isPaintingLayer&quot;:true}" fill-rule="nonzero" stroke="none" stroke-width="0.66342" stroke-linecap="butt" stroke-linejoin="miter" stroke-miterlimit="10" stroke-dasharray="" stroke-dashoffset="0" style="mix-blend-mode: normal"><g><g><path d="M266.21641,198.21279c-3.88815,0 -8.76535,-0.05551 -13.48244,-0.10875c-3.86067,-0.04394 -7.50791,-0.08521 -10.18698,-0.09049c-0.37494,0.01418 -0.89053,0.02127 -1.50149,0.02127c-6.66494,0 -24.92117,-0.82264 -25.1049,-0.83107c-0.90471,0.00488 -2.05834,0.10166 -3.2794,0.20459c-1.46999,0.12333 -3.13654,0.26398 -4.73387,0.26398c-3.27679,0 -7.73999,-0.50984 -8.66296,-4.92027c-0.21248,-1.01606 0.34076,-2.57788 0.98108,-4.38602c0.47874,-1.35107 0.97346,-2.74783 0.99118,-3.59929c0.01685,-0.79161 -0.08119,-1.74775 -0.18499,-2.75986c-0.25335,-2.4688 -0.54047,-5.26725 0.71924,-7.09927c1.3591,-1.97809 3.72403,-3.37216 5.81033,-4.60211c1.51794,-0.89501 2.95155,-1.74026 3.68009,-2.62677c0.76492,-0.93086 1.38792,-1.95361 1.99046,-2.94312c1.30807,-2.1475 2.5433,-4.17615 5.00146,-5.0143c0.94818,-0.32344 1.87643,-0.48054 2.83658,-0.48054c1.33114,0 2.56771,0.29996 3.87665,0.61725c1.58536,0.38423 3.22529,0.78178 5.38436,0.78178c0.94069,0 1.88579,-0.07497 2.88901,-0.2298c4.05502,-0.62474 5.336,-1.54235 6.69236,-2.51407c1.41989,-1.01693 2.88808,-2.06898 7.2963,-2.66663c0.93667,-0.12734 1.86312,-0.19168 2.75364,-0.19168c8.56885,0 14.68931,6.07478 15.59402,15.47644c0.36698,3.81987 3.24837,5.08754 6.58461,6.55485c2.56103,1.12655 5.20953,2.29169 6.91601,4.75032c2.55046,3.6756 1.78948,6.93153 0.70239,9.01562c-2.18836,4.193 -7.65438,7.36465 -12.71524,7.37616l-0.84752,0.00181z" fill="#91b6c5"/><path d="M249.98347,155.7036c-0.85368,0 -1.74113,0.06033 -2.66442,0.18546c-8.43222,1.14387 -5.49712,3.87311 -13.97676,5.1789c-1.09418,0.16861 -2.08409,0.23783 -2.99054,0.23783c-4.08345,0 -6.49058,-1.39903 -9.26148,-1.39903c-0.82398,0 -1.67986,0.1234 -2.62189,0.44463c-3.31886,1.13143 -4.27065,4.80269 -6.69283,7.75022c-1.84673,2.24688 -7.19778,3.89745 -9.45624,7.18314c-1.60402,2.33256 -0.35762,6.73142 -0.41667,9.4953c-0.04347,2.04858 -2.3139,6.26907 -1.98691,7.83536c0.75476,3.60511 4.24182,4.3909 8.0116,4.3909c2.88005,0 5.92476,-0.45834 8.04343,-0.46764c0,0 18.34766,0.83013 25.07473,0.83013c0.6012,0 1.10836,-0.00709 1.50283,-0.02127c5.91633,0.0115 16.56259,0.19924 23.66855,0.19924c0.28799,0 0.57016,0 0.84612,-0.00094c7.39395,-0.01726 16.86082,-7.57493 11.46803,-15.34689c-3.77506,-5.43934 -12.91448,-4.319 -13.6164,-11.62106c-0.77964,-8.10824 -5.8942,-14.87431 -14.93115,-14.87431M249.98347,155.7036v-1.33114v0c4.62606,0 8.61587,1.66789 11.53812,4.82262c2.65379,2.8646 4.28483,6.75677 4.71789,11.25501c0.31374,3.26569 2.55668,4.41137 6.19015,6.00957c2.5225,1.1097 5.38128,2.3672 7.19471,4.9806c2.1382,3.08063 2.40265,6.5269 0.74539,9.70296c-2.29397,4.39665 -8.01287,7.72133 -13.30359,7.73377l-0.84926,0.00087c-3.8913,0 -8.7707,-0.05544 -13.48952,-0.10868c-3.84782,-0.04394 -7.48263,-0.08474 -10.15642,-0.09056c-0.394,0.01378 -0.90691,0.02134 -1.52543,0.02134c-6.54335,0 -24.20862,-0.7898 -25.10088,-0.8302c-0.90604,0.00622 -2.03393,0.10072 -3.2275,0.20145c-1.4829,0.12514 -3.1641,0.26626 -4.78938,0.26626c-2.02149,0 -8.17345,0 -9.31378,-5.44964c-0.25074,-1.19845 0.331,-2.84146 1.00496,-4.74404c0.43928,-1.24065 0.93754,-2.64717 0.95306,-3.39216c0.01598,-0.74988 -0.08026,-1.68608 -0.18192,-2.67733c-0.26532,-2.58276 -0.56568,-5.51036 0.83241,-7.54343c1.44297,-2.09961 3.87531,-3.53368 6.02154,-4.79908c1.46557,-0.86438 2.84989,-1.68033 3.50392,-2.47589c0.73476,-0.89454 1.34579,-1.89683 1.93635,-2.86681c1.31201,-2.15465 2.66891,-4.38201 5.35553,-5.29782c1.01827,-0.34745 2.01661,-0.51606 3.05133,-0.51606c1.41053,0 2.68442,0.30886 4.03329,0.63584c1.54764,0.37494 3.14764,0.76318 5.22772,0.76318c0.90604,0 1.81791,-0.07237 2.78782,-0.22185c3.89752,-0.60033 5.11637,-1.47313 6.40624,-2.39737c1.48597,-1.06442 3.02251,-2.16482 7.59399,-2.78515c0.96684,-0.13089 1.92304,-0.19743 2.84327,-0.19743z" fill="#000000"/></g><path d="M219.37089,170.62051c-2.87784,-0.67751 -5.19709,-0.04127 -7.56115,1.67719c-1.73932,1.26366 -3.36507,2.96974 -5.35995,3.82743c-0.32438,0.13885 -0.74814,-0.27421 -0.4162,-0.53913c4.11843,-3.28829 7.94806,-8.09761 13.76996,-6.52957c1.01118,0.27201 0.58388,1.80279 -0.43266,1.56409z" fill="#231f20"/><path d="M210.71241,174.92132c-0.23027,0.0204 -0.27288,-0.34518 -0.05498,-0.39888c4.52132,-1.09017 8.09099,-4.13796 12.89187,-2.49802c0.87715,0.2995 0.50355,1.69223 -0.38383,1.39408c-2.47589,-0.83107 -4.76363,-0.80666 -7.20313,0.13089c-1.75484,0.67537 -3.37216,1.20647 -5.24993,1.37194z" fill="#231f20"/><path d="M258.56076,185.07333c1.36485,-1.18601 3.11969,-2.51581 3.84736,-4.21741c0.5289,-1.23309 0.7672,-2.66135 0.3217,-3.96587c-0.40958,-1.20286 -1.1838,-1.59954 -1.87863,-2.50157c-0.94911,-1.22995 -1.85563,-4.53517 -1.00101,-5.98603c0.26358,-0.4455 0.83903,-0.3847 1.11371,0c0.63183,0.88297 0.42991,2.67332 0.56174,3.69781c0.2298,1.77751 2.07654,2.78294 2.29129,4.64251c0.43038,3.70048 -2.00557,6.65023 -4.66779,8.91891c-0.40557,0.34518 -0.99479,-0.23475 -0.58836,-0.58836z" fill="#231f20"/><path d="M257.14487,188.48763c-0.26177,0.07457 -0.44102,-0.32391 -0.18767,-0.44857c1.8569,-0.90384 4.20631,-1.82673 5.61376,-3.3935c0.74452,-0.82966 1.62662,-1.95227 1.66475,-3.13433c0.02087,-0.6327 -0.05899,-1.2157 0.09276,-1.83289c0.11002,-0.44463 0.75917,-0.53204 0.97928,-0.12734c0.93754,1.73042 -0.6838,4.067 -1.9421,5.21796c-1.85382,1.69672 -3.80388,3.02873 -6.22078,3.71868z" fill="#231f20"/><path d="M246.98538,158.87873c-2.57219,0.11892 -4.05282,1.50102 -6.14226,2.7616c-1.72554,1.04228 -3.32602,1.60402 -5.27427,2.07032c-0.03993,0.00936 -0.05371,-0.04789 -0.01558,-0.05986c2.4506,-0.80264 4.6492,-2.33657 6.74393,-3.78884c1.42116,-0.9863 2.89162,-1.97755 4.68819,-1.805c0.52087,0.05063 0.53639,0.79689 0,0.82177z" fill="#231f20"/></g><g><g><path d="M234.25723,204.96194c-0.21121,0 -0.41754,-0.00575 -0.61939,-0.01639c-1.45494,-0.08032 -2.89122,-0.61096 -4.28001,-1.12388c-1.53346,-0.56709 -3.11922,-1.15324 -4.75474,-1.15324c-0.07457,0 -0.14955,0.00094 -0.22452,0.00354c-0.90651,0.02976 -1.92565,0.23074 -2.91162,0.42463c-1.11144,0.21924 -2.26113,0.44597 -3.31893,0.44597c-1.79122,0 -3.03448,-0.66868 -3.80121,-2.0433c-1.48771,-2.66797 -0.28217,-3.76262 1.90659,-5.75087c0.67223,-0.61049 1.43407,-1.30272 2.30775,-2.19104c0.1961,-0.19917 0.48054,-0.77288 0.78225,-1.38077c1.1616,-2.34185 3.32381,-6.70172 8.73392,-6.70172c4.16371,0 7.58911,3.4862 9.85599,5.79347c0.52007,0.5289 0.96951,0.9863 1.33776,1.30847c2.05393,1.79697 4.95618,7.08643 3.37705,9.31605c-1.35997,1.92077 -5.33467,3.06906 -8.39088,3.06906v0z" fill="#5f8ba5"/><path d="M228.07685,186.13995c-6.49366,0 -7.86687,6.69022 -9.04137,7.88379c-3.77325,3.83719 -5.71629,4.2671 -4.10786,7.15123c0.73035,1.30981 1.88178,1.702 3.22001,1.702c1.91682,0 4.21654,-0.80485 6.20874,-0.87006c0.08213,-0.00268 0.16419,-0.00401 0.24626,-0.00401c3.28034,0 6.15911,2.11827 9.0716,2.27798c0.18941,0.01023 0.38423,0.01552 0.58254,0.01552c2.92225,0 6.66046,-1.1115 7.8478,-2.78869c1.26861,-1.79122 -1.27831,-6.68574 -3.27231,-8.43041c-1.994,-1.7446 -5.93453,-6.93735 -10.75541,-6.93735M228.07685,186.13995v-1.33108v0c4.44327,0 7.98625,3.60598 10.33078,5.99225c0.51071,0.52 0.95179,0.96858 1.30098,1.27429c2.01929,1.76641 5.42917,7.45294 3.48218,10.20123c-1.54008,2.17686 -5.75261,3.3509 -8.93403,3.3509c-0.22318,0 -0.44369,-0.00622 -0.65577,-0.01779c-1.55473,-0.08514 -3.03896,-0.63357 -4.4743,-1.16427c-1.54677,-0.5715 -3.00746,-1.11144 -4.52406,-1.11144c-0.06742,0 -0.1349,0.00087 -0.20278,0.00308c-0.85281,0.02842 -1.80052,0.21522 -2.80461,0.41266c-1.143,0.22539 -2.32507,0.45834 -3.44761,0.45834c-2.02551,0 -3.49997,-0.80264 -4.38248,-2.38493c-1.74514,-3.12945 -0.1571,-4.57148 2.04062,-6.56769c0.66594,-0.60481 1.42029,-1.28988 2.27838,-2.16268c0.1349,-0.14814 0.42777,-0.7383 0.66293,-1.21216c1.22547,-2.47187 3.507,-7.07178 9.32976,-7.07178z" fill="#000000"/></g><path d="M225.05742,194.19676c1.04984,0.29822 2.02377,0.6527 2.88413,1.34091c0.43834,0.35099 -0.1975,1.01078 -0.62474,0.62474c-1.5885,-1.43187 -4.70063,-1.1093 -5.80993,-3.04117c-0.03638,-0.06481 0.02441,-0.15617 0.09985,-0.13002c1.16033,0.39714 2.26514,0.86832 3.45068,1.20554z" fill="#231f20"/><path d="M225.99898,195.93608c0.31367,0.19168 0.02842,0.6838 -0.28839,0.49385c-1.48377,-0.89053 -4.52005,-0.48094 -5.08353,-2.52685c-0.04702,-0.16821 0.19255,-0.33548 0.3128,-0.18192c0.71837,0.91266 1.42919,1.30666 2.57039,1.53118c0.84124,0.1646 1.73979,0.2272 2.48873,0.68373z" fill="#231f20"/></g></g></g></svg>